<svg width="13" height="18" viewBox="0 0 13 18" fill="none" xmlns="http://www.w3.org/2000/svg">
<path d="M1.26716 0H12.7328C13.1847 0 13.551 0.366328 13.551 0.818191V5.72727V9.54534V13.3636V17.1818C13.551 17.6336 13.1847 18 12.7328 18H8.91462H5.09645H1.26719C0.815328 18 0.448999 17.6336 0.448999 17.1818V5.72727V0.818191C0.448964 0.366328 0.815292 0 1.26716 0ZM9.73282 16.3637H11.9146V14.1818H9.73282V16.3637ZM9.73282 12.5455H11.9146V10.3635H9.73282V12.5455ZM9.73282 8.72715H11.9146V6.54546H9.73282V8.72715ZM5.91464 16.3637H8.09647V14.1818H5.91464V16.3637ZM5.91464 12.5455H8.09647V10.3635H5.91464V12.5455ZM5.91464 8.72715H8.09647V6.54546H5.91464V8.72715ZM8.91466 4.90908H11.9146V1.63635H2.08538V4.90908H5.09645H8.91466ZM4.27829 6.54546H2.08538V8.72715H4.27829V6.54546ZM2.08535 16.3637H4.27822V13.3637V10.3636H2.08531V16.3637H2.08535Z" fill="white"/>
</svg>
