<svg width="14" height="18" viewBox="0 0 14 18" fill="none" xmlns="http://www.w3.org/2000/svg">
<path d="M1.26694 0H12.7326C13.1845 0 13.5508 0.366328 13.5508 0.818191V5.72727V9.54534V13.3636V17.1818C13.5508 17.6336 13.1845 18 12.7326 18H8.91441H5.09623H1.26698C0.815114 18 0.448786 17.6336 0.448786 17.1818V5.72727V0.818191C0.44875 0.366328 0.815079 0 1.26694 0ZM9.7326 16.3637H11.9144V14.1818H9.7326V16.3637ZM9.7326 12.5455H11.9144V10.3635H9.7326V12.5455ZM9.7326 8.72715H11.9144V6.54546H9.7326V8.72715ZM5.91442 16.3637H8.09625V14.1818H5.91442V16.3637ZM5.91442 12.5455H8.09625V10.3635H5.91442V12.5455ZM5.91442 8.72715H8.09625V6.54546H5.91442V8.72715ZM8.91445 4.90908H11.9144V1.63635H2.08517V4.90908H5.09623H8.91445ZM4.27807 6.54546H2.08517V8.72715H4.27807V6.54546ZM2.08513 16.3637H4.278V13.3637V10.3636H2.0851V16.3637H2.08513Z" fill="#83B62F"/>
</svg>
