<svg width="18" height="16" viewBox="0 0 18 16" fill="none" xmlns="http://www.w3.org/2000/svg">
<path d="M2.44736 15.5724C2.44736 15.5724 2.43099 15.9748 2.82455 15.9748C3.31428 15.9748 7.36172 15.9693 7.36172 15.9693L7.36854 12.2513C7.36854 12.2513 7.30443 11.6388 7.89852 11.6388H9.78173C10.485 11.6388 10.442 12.2513 10.442 12.2513L10.4338 15.9577C10.4338 15.9577 14.2725 15.9577 14.8755 15.9577C15.3748 15.9577 15.3522 15.4571 15.3522 15.4571V8.60087L9.09215 3.03308L2.44736 8.60155V15.5724Z" fill="#1E1F21" fill-opacity="0.5"/>
<path d="M0 8.08319C0 8.08319 0.563395 9.12267 1.79454 8.08319L9.14801 1.86197L16.0418 8.04431C17.4659 9.07152 18 8.04431 18 8.04431L9.14801 0.0258179L0 8.08319Z" fill="#1E1F21" fill-opacity="0.5"/>
<path d="M15.8743 1.84766H14.1016L14.1091 3.99824L15.8743 5.49677V1.84766Z" fill="#1E1F21" fill-opacity="0.5"/>
</svg>
