<svg width="48" height="34" viewBox="0 0 48 34" fill="none" xmlns="http://www.w3.org/2000/svg">
<path d="M45.125 0H2.375C1.06355 0 0 1.06355 0 2.375V30.875C0 32.1864 1.06355 33.25 2.375 33.25H45.125C46.4364 33.25 47.5 32.1864 47.5 30.875V2.375C47.5 1.06355 46.4364 0 45.125 0ZM13.0625 21.9598V23.1562C13.0625 23.4843 12.7968 23.75 12.4688 23.75H11.2812C10.9532 23.75 10.6875 23.4843 10.6875 23.1562V21.9472C9.84957 21.9042 9.03465 21.6118 8.35926 21.1048C8.0698 20.8874 8.05496 20.4539 8.31695 20.2038L9.18902 19.3718C9.39461 19.1759 9.70039 19.167 9.94086 19.3177C10.2281 19.4973 10.5539 19.5938 10.8923 19.5938H12.9786C13.4611 19.5938 13.8544 19.1544 13.8544 18.6148C13.8544 18.1732 13.5865 17.7843 13.2035 17.67L9.86367 16.668C8.48394 16.2539 7.51984 14.9298 7.51984 13.4477C7.51984 11.6279 8.93371 10.1494 10.6868 10.1027V8.90625C10.6868 8.5782 10.9525 8.3125 11.2805 8.3125H12.468C12.7961 8.3125 13.0618 8.5782 13.0618 8.90625V10.1153C13.8997 10.1583 14.7146 10.45 15.39 10.9577C15.6795 11.1751 15.6943 11.6086 15.4323 11.8587L14.5602 12.6907C14.3546 12.8866 14.0489 12.8955 13.8084 12.7448C13.5212 12.5645 13.1954 12.4688 12.8569 12.4688H10.7706C10.2882 12.4688 9.89484 12.9081 9.89484 13.4477C9.89484 13.8893 10.1628 14.2782 10.5457 14.3925L13.8856 15.3945C15.2653 15.8086 16.2294 17.1327 16.2294 18.6148C16.2294 20.4354 14.8155 21.9131 13.0625 21.9598ZM30.875 20.7812C30.875 21.1093 30.6093 21.375 30.2812 21.375H21.9688C21.6407 21.375 21.375 21.1093 21.375 20.7812V19.5938C21.375 19.2657 21.6407 19 21.9688 19H30.2812C30.6093 19 30.875 19.2657 30.875 19.5938V20.7812ZM42.75 20.7812C42.75 21.1093 42.4843 21.375 42.1562 21.375H36.2188C35.8907 21.375 35.625 21.1093 35.625 20.7812V19.5938C35.625 19.2657 35.8907 19 36.2188 19H42.1562C42.4843 19 42.75 19.2657 42.75 19.5938V20.7812ZM42.75 13.6562C42.75 13.9843 42.4843 14.25 42.1562 14.25H21.9688C21.6407 14.25 21.375 13.9843 21.375 13.6562V12.4688C21.375 12.1407 21.6407 11.875 21.9688 11.875H42.1562C42.4843 11.875 42.75 12.1407 42.75 12.4688V13.6562Z" fill="#83B62F"/>
</svg>
