<svg width="49" height="49" viewBox="0 0 49 49" fill="none" xmlns="http://www.w3.org/2000/svg">
<path d="M43.74 48.4H4.86C2.106 48.4 0 46.294 0 43.54V7.90004C0 5.14604 1.782 3.04004 4.05 3.04004H6.48V6.28004H4.05C3.726 6.28004 3.24 6.92804 3.24 7.90004V43.54C3.24 44.512 3.888 45.16 4.86 45.16H43.74C44.712 45.16 45.36 44.512 45.36 43.54V7.90004C45.36 6.92804 44.874 6.28004 44.55 6.28004H42.12V3.04004H44.55C46.818 3.04004 48.6 5.14604 48.6 7.90004V43.54C48.6 46.294 46.494 48.4 43.74 48.4Z" fill="#83B62F"/>
<path d="M11.3427 9.72C10.3707 9.72 9.72266 9.072 9.72266 8.1V1.62C9.72266 0.648 10.3707 0 11.3427 0C12.3147 0 12.9627 0.648 12.9627 1.62V8.1C12.9627 9.072 12.3147 9.72 11.3427 9.72Z" fill="#83B62F"/>
<path d="M37.2606 9.72C36.2886 9.72 35.6406 9.072 35.6406 8.1V1.62C35.6406 0.648 36.2886 0 37.2606 0C38.2326 0 38.8806 0.648 38.8806 1.62V8.1C38.8806 9.072 38.2326 9.72 37.2606 9.72Z" fill="#83B62F"/>
<path d="M16.1992 3.23999H32.3992V6.47999H16.1992V3.23999Z" fill="#83B62F"/>
<path d="M3.24023 12.96H45.3602V16.2H3.24023V12.96Z" fill="#83B62F"/>
<path d="M24.8008 41H28.0408V44.24H24.8008V41Z" fill="#83B62F"/>
<path d="M18.8008 41H22.0408V44.24H18.8008V41Z" fill="#83B62F"/>
<path d="M12.8008 41H16.0408V44.24H12.8008V41Z" fill="#83B62F"/>
<path d="M6.80078 41H10.0408V44.24H6.80078V41Z" fill="#83B62F"/>
<path d="M30.8008 19H34.0408V22.24H30.8008V19Z" fill="#83B62F"/>
<path d="M24.8008 19H28.0408V22.24H24.8008V19Z" fill="#83B62F"/>
<path d="M18.8008 19H22.0408V22.24H18.8008V19Z" fill="#83B62F"/>
<path d="M12.8008 19H16.0408V22.24H12.8008V19Z" fill="#83B62F"/>
<path d="M6.80078 19H10.0408V22.24H6.80078V19Z" fill="#83B62F"/>
<path d="M36.8008 26H40.0408V29.24H36.8008V26Z" fill="#83B62F"/>
<path d="M30.8008 26H34.0408V29.24H30.8008V26Z" fill="#83B62F"/>
<path d="M24.8008 26H28.0408V29.24H24.8008V26Z" fill="#83B62F"/>
<path d="M18.8008 26H22.0408V29.24H18.8008V26Z" fill="#83B62F"/>
<path d="M12.8008 26H16.0408V29.24H12.8008V26Z" fill="#83B62F"/>
<path d="M6.48047 26H9.72047V29.24H6.48047V26Z" fill="#83B62F"/>
<path d="M36.8008 34H40.0408V37.24H36.8008V34Z" fill="#83B62F"/>
<path d="M30.8008 34H34.0408V37.24H30.8008V34Z" fill="#83B62F"/>
<path d="M24.8008 34H28.0408V37.24H24.8008V34Z" fill="#83B62F"/>
<path d="M18.8008 34H22.0408V37.24H18.8008V34Z" fill="#83B62F"/>
<path d="M12.8008 34H16.0408V37.24H12.8008V34Z" fill="#83B62F"/>
<path d="M6.48047 34H9.72047V37.24H6.48047V34Z" fill="#83B62F"/>
<path d="M36.8008 19H40.0408V22.24H36.8008V19Z" fill="#83B62F"/>
</svg>
