<svg width="40" height="51" viewBox="0 0 40 51" fill="none" xmlns="http://www.w3.org/2000/svg">
<path d="M20.0007 6.74837C20.3323 6.74837 20.6502 6.88007 20.8846 7.11449C21.1191 7.34891 21.2507 7.66685 21.2507 7.99837C21.2507 8.21939 21.3385 8.43135 21.4948 8.58763C21.6511 8.74391 21.8631 8.83171 22.0841 8.83171C22.3051 8.83171 22.5171 8.74391 22.6733 8.58763C22.8296 8.43135 22.9174 8.21939 22.9174 7.99837C22.9152 7.37251 22.7113 6.76402 22.336 6.26313C21.9608 5.76223 21.4341 5.39559 20.8341 5.21754V4.24837C20.8341 4.02736 20.7463 3.8154 20.59 3.65912C20.4337 3.50284 20.2218 3.41504 20.0007 3.41504C19.7797 3.41504 19.5678 3.50284 19.4115 3.65912C19.2552 3.8154 19.1674 4.02736 19.1674 4.24837V5.21754C18.4961 5.41586 17.9188 5.84967 17.5415 6.43934C17.1642 7.02901 17.0123 7.73497 17.1136 8.42762C17.2149 9.12028 17.5627 9.75316 18.093 10.2101C18.6234 10.667 19.3007 10.9173 20.0007 10.915C20.248 10.915 20.4896 10.9884 20.6952 11.1257C20.9008 11.2631 21.061 11.4583 21.1556 11.6867C21.2502 11.9151 21.275 12.1664 21.2267 12.4089C21.1785 12.6514 21.0594 12.8741 20.8846 13.0489C20.7098 13.2237 20.4871 13.3428 20.2446 13.391C20.0021 13.4393 19.7508 13.4145 19.5224 13.3199C19.294 13.2253 19.0988 13.0651 18.9614 12.8595C18.8241 12.6539 18.7507 12.4123 18.7507 12.165C18.7507 11.944 18.663 11.7321 18.5067 11.5758C18.3504 11.4195 18.1384 11.3317 17.9174 11.3317C17.6964 11.3317 17.4844 11.4195 17.3282 11.5758C17.1719 11.7321 17.0841 11.944 17.0841 12.165C17.0863 12.7909 17.2902 13.3994 17.6655 13.9003C18.0407 14.4012 18.5674 14.7678 19.1674 14.9459V15.915C19.1674 16.1361 19.2552 16.348 19.4115 16.5043C19.5678 16.6606 19.7797 16.7484 20.0007 16.7484C20.2218 16.7484 20.4337 16.6606 20.59 16.5043C20.7463 16.348 20.8341 16.1361 20.8341 15.915V14.9459C21.5054 14.7476 22.0827 14.3137 22.46 13.7241C22.8373 13.1344 22.9892 12.4284 22.8879 11.7358C22.7866 11.0431 22.4388 10.4103 21.9085 9.95333C21.3781 9.49641 20.7008 9.24611 20.0007 9.24837C19.6692 9.24837 19.3513 9.11668 19.1169 8.88226C18.8824 8.64784 18.7507 8.32989 18.7507 7.99837C18.7507 7.66685 18.8824 7.34891 19.1169 7.11449C19.3513 6.88007 19.6692 6.74837 20.0007 6.74837Z" fill="white"/>
<path d="M19.9999 20.0818C22.0244 20.0846 24.0014 19.4691 25.6665 18.3176C25.8401 18.189 25.957 17.998 25.9925 17.7849C26.028 17.5718 25.9793 17.3532 25.8567 17.1753C25.7341 16.9974 25.5472 16.874 25.3355 16.8312C25.1237 16.7884 24.9036 16.8296 24.7215 16.946C23.0078 18.1251 20.9153 18.6212 18.8547 18.337C16.794 18.0528 14.9139 17.0088 13.5834 15.4098C12.2528 13.8108 11.5678 11.7723 11.6628 9.69434C11.7578 7.61634 12.626 5.64885 14.0969 4.17795C15.5678 2.70705 17.5353 1.83892 19.6133 1.74392C21.6913 1.64892 23.7298 2.33391 25.3287 3.66447C26.9277 4.99503 27.9717 6.8751 28.2559 8.93577C28.5401 10.9964 28.044 13.0889 26.8649 14.8026C26.7459 14.9846 26.7028 15.2059 26.7448 15.4193C26.7867 15.6326 26.9104 15.8211 27.0894 15.9446C27.2684 16.068 27.4885 16.1166 27.7029 16.08C27.9172 16.0433 28.1087 15.9244 28.2365 15.7485C29.5032 13.9068 30.1163 11.6938 29.9779 9.46284C29.8396 7.23189 28.9577 5.11162 27.4733 3.44052C25.9888 1.76942 23.9872 0.643853 21.7882 0.243506C19.5891 -0.15684 17.3193 0.191122 15.3411 1.23184C13.3629 2.27256 11.7905 3.94603 10.8747 5.98508C9.95904 8.02413 9.75288 10.3112 10.2892 12.4811C10.8255 14.6511 12.0733 16.5788 13.8335 17.9565C15.5937 19.3342 17.7647 20.0824 19.9999 20.0818Z" fill="white"/>
<path d="M11.6664 20.0817C11.8874 20.0817 12.0994 19.9939 12.2557 19.8376C12.4119 19.6814 12.4997 19.4694 12.4997 19.2484C12.4997 19.0274 12.4119 18.8154 12.2557 18.6591C12.0994 18.5028 11.8874 18.4151 11.6664 18.4151H9.1664C9.01154 18.415 8.85973 18.4581 8.72799 18.5395C8.59625 18.6209 8.48979 18.7374 8.42057 18.8759L6.7539 22.2092C6.6904 22.3363 6.66044 22.4775 6.66687 22.6194C6.6733 22.7613 6.7159 22.8993 6.79063 23.0201C6.86536 23.1409 6.96973 23.2406 7.09384 23.3097C7.21795 23.3789 7.35767 23.4151 7.49974 23.4151H32.4997C32.6422 23.4158 32.7824 23.3801 32.9071 23.3113C33.0318 23.2424 33.1367 23.1428 33.2119 23.0219C33.2871 22.9009 33.3301 22.7627 33.3367 22.6205C33.3434 22.4782 33.3134 22.3366 33.2497 22.2092L31.5831 18.8759C31.5135 18.7367 31.4064 18.6198 31.2739 18.5384C31.1413 18.4569 30.9886 18.4142 30.8331 18.4151H28.3331C28.1121 18.4151 27.9001 18.5028 27.7438 18.6591C27.5875 18.8154 27.4997 19.0274 27.4997 19.2484C27.4997 19.4694 27.5875 19.6814 27.7438 19.8376C27.9001 19.9939 28.1121 20.0817 28.3331 20.0817H30.3181L31.1514 21.7484H8.84807L9.6814 20.0817H11.6664Z" fill="white"/>
<path d="M39.8792 25.5085L39.8867 25.4951L34.0533 15.4951C33.9799 15.3693 33.8748 15.2649 33.7485 15.1924C33.6221 15.1199 33.479 15.0817 33.3333 15.0818H30.4042C30.1832 15.0818 29.9712 15.1696 29.8149 15.3259C29.6586 15.4821 29.5708 15.6941 29.5708 15.9151C29.5708 16.1361 29.6586 16.3481 29.8149 16.5044C29.9712 16.6607 30.1832 16.7485 30.4042 16.7485H32.855L37.7158 25.0818H2.28417L7.145 16.7485H9.59583C9.81685 16.7485 10.0288 16.6607 10.1851 16.5044C10.3414 16.3481 10.4292 16.1361 10.4292 15.9151C10.4292 15.6941 10.3414 15.4821 10.1851 15.3259C10.0288 15.1696 9.81685 15.0818 9.59583 15.0818H6.66667C6.52067 15.0821 6.37732 15.1207 6.25096 15.1939C6.1246 15.267 6.01966 15.372 5.94667 15.4985L0.113333 25.4985L0.120834 25.5118C0.0456701 25.6332 0.00398061 25.7724 0 25.9151V35.0818C0 35.3028 0.0877975 35.5148 0.244078 35.671C0.400358 35.8273 0.61232 35.9151 0.833333 35.9151C1.05435 35.9151 1.26631 35.8273 1.42259 35.671C1.57887 35.5148 1.66667 35.3028 1.66667 35.0818V30.0818H26.6667C26.8877 30.0818 27.0996 29.994 27.2559 29.8377C27.4122 29.6814 27.5 29.4695 27.5 29.2485C27.5 29.0274 27.4122 28.8155 27.2559 28.6592C27.0996 28.5029 26.8877 28.4151 26.6667 28.4151H1.66667V26.7485H38.3333V28.4151H30C29.779 28.4151 29.567 28.5029 29.4107 28.6592C29.2545 28.8155 29.1667 29.0274 29.1667 29.2485C29.1667 29.4695 29.2545 29.6814 29.4107 29.8377C29.567 29.994 29.779 30.0818 30 30.0818H38.3333V48.4151H17.5V38.4151C17.5 37.5311 17.1488 36.6832 16.5237 36.0581C15.8986 35.433 15.0507 35.0818 14.1667 35.0818H9.16667C8.28261 35.0818 7.43477 35.433 6.80964 36.0581C6.18452 36.6832 5.83333 37.5311 5.83333 38.4151V48.4151H1.66667V38.4151C1.66667 38.1941 1.57887 37.9821 1.42259 37.8259C1.26631 37.6696 1.05435 37.5818 0.833333 37.5818C0.61232 37.5818 0.400358 37.6696 0.244078 37.8259C0.0877975 37.9821 0 38.1941 0 38.4151V49.2485C0 49.4695 0.0877975 49.6814 0.244078 49.8377C0.400358 49.994 0.61232 50.0818 0.833333 50.0818H39.1667C39.3877 50.0818 39.5996 49.994 39.7559 49.8377C39.9122 49.6814 40 49.4695 40 49.2485V25.9151C39.9966 25.7712 39.9549 25.6309 39.8792 25.5085ZM7.5 48.4151V38.4151C7.5 37.9731 7.67559 37.5492 7.98816 37.2366C8.30072 36.924 8.72464 36.7485 9.16667 36.7485H14.1667C14.6087 36.7485 15.0326 36.924 15.3452 37.2366C15.6577 37.5492 15.8333 37.9731 15.8333 38.4151V48.4151H7.5Z" fill="white"/>
<path d="M10.0003 44.2485C10.4606 44.2485 10.8337 43.8754 10.8337 43.4151C10.8337 42.9549 10.4606 42.5818 10.0003 42.5818C9.54009 42.5818 9.16699 42.9549 9.16699 43.4151C9.16699 43.8754 9.54009 44.2485 10.0003 44.2485Z" fill="white"/>
<path d="M33.334 45.0818C33.997 45.0818 34.6329 44.8184 35.1017 44.3496C35.5706 43.8807 35.834 43.2448 35.834 42.5818V37.5818C35.834 36.9187 35.5706 36.2829 35.1017 35.814C34.6329 35.3452 33.997 35.0818 33.334 35.0818H23.334C22.6709 35.0818 22.0351 35.3452 21.5662 35.814C21.0974 36.2829 20.834 36.9187 20.834 37.5818V42.5818C20.834 43.2448 21.0974 43.8807 21.5662 44.3496C22.0351 44.8184 22.6709 45.0818 23.334 45.0818H33.334ZM34.1673 37.5818V42.5818C34.1673 42.8028 34.0795 43.0148 33.9232 43.171C33.767 43.3273 33.555 43.4151 33.334 43.4151H29.1673V36.7485H33.334C33.555 36.7485 33.767 36.8363 33.9232 36.9925C34.0795 37.1488 34.1673 37.3608 34.1673 37.5818ZM22.5007 42.5818V37.5818C22.5007 37.3608 22.5884 37.1488 22.7447 36.9925C22.901 36.8363 23.113 36.7485 23.334 36.7485H27.5007V43.4151H23.334C23.113 43.4151 22.901 43.3273 22.7447 43.171C22.5884 43.0148 22.5007 42.8028 22.5007 42.5818Z" fill="white"/>
</svg>
