<svg width="50" height="50" viewBox="0 0 50 50" fill="none" xmlns="http://www.w3.org/2000/svg">
<path d="M48.4376 22.2043H46.0938V12.9848H47.6563C47.785 12.9849 47.9116 12.9536 48.025 12.8939C48.1385 12.8342 48.2351 12.7479 48.3065 12.6426C48.3778 12.5373 48.4216 12.4164 48.434 12.2904C48.4464 12.1645 48.4269 12.0375 48.3774 11.9208L44.4712 2.70126C44.4118 2.56131 44.3116 2.44177 44.1833 2.35769C44.055 2.27361 43.9043 2.22875 43.7501 2.22876H6.25007C6.09587 2.22875 5.94512 2.27361 5.8168 2.35769C5.68849 2.44177 5.58834 2.56131 5.52897 2.70126L1.62272 11.9208C1.57319 12.0375 1.55375 12.1645 1.56612 12.2904C1.57849 12.4164 1.6223 12.5373 1.69364 12.6426C1.76498 12.7479 1.86166 12.8342 1.97508 12.8939C2.08851 12.9536 2.21517 12.9849 2.34382 12.9848H44.5313V22.2043H5.46882V15.2897C5.46882 15.086 5.38651 14.8905 5.23999 14.7465C5.09348 14.6024 4.89477 14.5214 4.68757 14.5214C4.48037 14.5214 4.28165 14.6024 4.13514 14.7465C3.98863 14.8905 3.90632 15.086 3.90632 15.2897V22.2043H2.34382C2.13661 22.2043 1.9379 22.2853 1.79139 22.4294C1.64488 22.5734 1.56257 22.7689 1.56257 22.9726C1.56257 23.1764 1.64488 23.3718 1.79139 23.5159C1.9379 23.66 2.13661 23.7409 2.34382 23.7409H47.6563V25.2775H2.34382C2.13661 25.2775 1.9379 25.3584 1.79139 25.5025C1.64488 25.6466 1.56257 25.842 1.56257 26.0458C1.56257 26.2496 1.64488 26.445 1.79139 26.5891C1.9379 26.7331 2.13661 26.8141 2.34382 26.8141H3.12507V43.7165H2.34382C2.13661 43.7165 1.9379 43.7974 1.79139 43.9415C1.64488 44.0856 1.56257 44.281 1.56257 44.4848V47.558C1.56257 47.7617 1.64488 47.9571 1.79139 48.1012C1.9379 48.2453 2.13661 48.3262 2.34382 48.3262H47.6563C47.8635 48.3262 48.0622 48.2453 48.2087 48.1012C48.3553 47.9571 48.4376 47.7617 48.4376 47.558V44.4848C48.4376 44.281 48.3553 44.0856 48.2087 43.9415C48.0622 43.7974 47.8635 43.7165 47.6563 43.7165H46.8751V29.119C46.8751 28.9152 46.7928 28.7198 46.6462 28.5757C46.4997 28.4316 46.301 28.3507 46.0938 28.3507C45.8866 28.3507 45.6879 28.4316 45.5414 28.5757C45.3949 28.7198 45.3126 28.9152 45.3126 29.119V37.5702H34.3751V26.8141H48.4376C48.6448 26.8141 48.8435 26.7331 48.99 26.5891C49.1365 26.445 49.2188 26.2496 49.2188 26.0458V22.9726C49.2188 22.7689 49.1365 22.5734 48.99 22.4294C48.8435 22.2853 48.6448 22.2043 48.4376 22.2043ZM46.4844 11.4483H41.986L39.629 3.76534H43.229L46.4844 11.4483ZM6.77116 3.76534H10.3704L8.01335 11.4483H3.51569L6.77116 3.76534ZM12.0055 3.76534H15.6571L14.1954 11.4483H9.64538L12.0055 3.76534ZM17.2469 3.76534H21.2602L20.7548 11.4483H15.7813L17.2469 3.76534ZM22.3251 11.4483L22.8298 3.76534H27.1844L27.6899 11.4483H22.3251ZM29.2555 11.4483L28.743 3.76534H32.7571L34.2188 11.4483H29.2555ZM35.8126 11.4483L34.3462 3.76534H37.9969L40.354 11.4483H35.8126ZM10.9376 43.7165V39.1068H12.5001V43.7165H10.9376ZM7.81257 43.7165V39.1068H9.37507V43.7165H7.81257ZM14.0626 39.1068H15.6251V43.7165H14.0626V39.1068ZM15.6251 26.8141V37.5702H4.68757V26.8141H15.6251ZM4.68757 39.1068H6.25007V43.7165H4.68757V39.1068ZM46.8751 46.7897H3.12507V45.2531H46.8751V46.7897ZM34.3751 39.1068H35.9376V43.7165H34.3751V39.1068ZM40.6251 43.7165V39.1068H42.1876V43.7165H40.6251ZM39.0626 43.7165H37.5001V39.1068H39.0626V43.7165ZM45.3126 43.7165H43.7501V39.1068H45.3126V43.7165ZM32.8126 43.7165H29.6876V33.7287C29.6876 33.5249 29.6053 33.3295 29.4587 33.1854C29.3122 33.0414 29.1135 32.9604 28.9063 32.9604H21.0938C20.8866 32.9604 20.6879 33.0414 20.5414 33.1854C20.3949 33.3295 20.3126 33.5249 20.3126 33.7287V36.8019C20.3126 37.0056 20.3949 37.2011 20.5414 37.3451C20.6879 37.4892 20.8866 37.5702 21.0938 37.5702C21.301 37.5702 21.4997 37.4892 21.6462 37.3451C21.7928 37.2011 21.8751 37.0056 21.8751 36.8019V34.497H28.1251V38.3385H26.5626C26.3554 38.3385 26.1567 38.4194 26.0101 38.5635C25.8636 38.7076 25.7813 38.903 25.7813 39.1068C25.7813 39.3105 25.8636 39.5059 26.0101 39.65C26.1567 39.7941 26.3554 39.875 26.5626 39.875H28.1251V43.7165H21.8751V39.875C21.8751 39.6713 21.7928 39.4759 21.6462 39.3318C21.4997 39.1877 21.301 39.1068 21.0938 39.1068C20.8866 39.1068 20.6879 39.1877 20.5414 39.3318C20.3949 39.4759 20.3126 39.6713 20.3126 39.875V43.7165H17.1876V26.8141H32.8126V43.7165Z" fill="white"/>
<path d="M36.7188 29.8872C36.5115 29.8872 36.3128 29.9682 36.1663 30.1123C36.0198 30.2563 35.9375 30.4518 35.9375 30.6556V35.2657C35.9375 35.4695 36.0198 35.6649 36.1663 35.809C36.3128 35.9531 36.5115 36.034 36.7188 36.034H42.9688C43.176 36.034 43.3747 35.9531 43.5212 35.809C43.6677 35.6649 43.75 35.4695 43.75 35.2657V30.6556C43.75 30.4518 43.6677 30.2563 43.5212 30.1123C43.3747 29.9682 43.176 29.8872 42.9688 29.8872H36.7188ZM42.1875 34.4973H37.5V31.4239H42.1875V34.4973Z" fill="white"/>
<path d="M7.03125 36.034H13.2812C13.4884 36.034 13.6872 35.9531 13.8337 35.809C13.9802 35.6649 14.0625 35.4695 14.0625 35.2657C14.0625 35.0619 13.9802 34.8665 13.8337 34.7224C13.6872 34.5783 13.4884 34.4973 13.2812 34.4973H7.8125V31.4239H12.5V32.1923C12.5 32.3961 12.5823 32.5915 12.7288 32.7356C12.8753 32.8797 13.074 32.9606 13.2812 32.9606C13.4884 32.9606 13.6872 32.8797 13.8337 32.7356C13.9802 32.5915 14.0625 32.3961 14.0625 32.1923V30.6556C14.0625 30.4518 13.9802 30.2563 13.8337 30.1123C13.6872 29.9682 13.4884 29.8872 13.2812 29.8872H7.03125C6.82405 29.8872 6.62534 29.9682 6.47882 30.1123C6.33231 30.2563 6.25 30.4518 6.25 30.6556V35.2657C6.25 35.4695 6.33231 35.6649 6.47882 35.809C6.62534 35.9531 6.82405 36.034 7.03125 36.034Z" fill="white"/>
<path d="M21.875 30.6555H28.125C28.3322 30.6555 28.5309 30.5745 28.6774 30.4305C28.8239 30.2864 28.9062 30.091 28.9062 29.8872C28.9062 29.6834 28.8239 29.488 28.6774 29.3439C28.5309 29.1998 28.3322 29.1189 28.125 29.1189H21.875C21.6678 29.1189 21.4691 29.1998 21.3226 29.3439C21.1761 29.488 21.0938 29.6834 21.0938 29.8872C21.0938 30.091 21.1761 30.2864 21.3226 30.4305C21.4691 30.5745 21.6678 30.6555 21.875 30.6555Z" fill="white"/>
<path d="M15.625 20.6683C15.8322 20.6683 16.0309 20.5874 16.1774 20.4433C16.3239 20.2992 16.4062 20.1037 16.4062 19.9V15.2898C16.4062 15.0861 16.3239 14.8906 16.1774 14.7465C16.0309 14.6024 15.8322 14.5215 15.625 14.5215H9.375C9.1678 14.5215 8.96909 14.6024 8.82257 14.7465C8.67606 14.8906 8.59375 15.0861 8.59375 15.2898V19.9C8.59375 20.1037 8.67606 20.2992 8.82257 20.4433C8.96909 20.5874 9.1678 20.6683 9.375 20.6683H15.625ZM14.8437 19.1316H13.2812V16.0582H14.8437V19.1316ZM10.1562 16.0582H11.7187V19.1316H10.1562V16.0582Z" fill="white"/>
<path d="M28.125 20.6683C28.3322 20.6683 28.5309 20.5874 28.6774 20.4433C28.8239 20.2992 28.9062 20.1037 28.9062 19.9V15.2898C28.9062 15.0861 28.8239 14.8906 28.6774 14.7465C28.5309 14.6024 28.3322 14.5215 28.125 14.5215H21.875C21.6678 14.5215 21.4691 14.6024 21.3226 14.7465C21.1761 14.8906 21.0938 15.0861 21.0938 15.2898V19.9C21.0938 20.1037 21.1761 20.2992 21.3226 20.4433C21.4691 20.5874 21.6678 20.6683 21.875 20.6683H28.125ZM27.3438 19.1316H25.7812V16.0582H27.3438V19.1316ZM22.6562 16.0582H24.2188V19.1316H22.6562V16.0582Z" fill="white"/>
<path d="M39.8438 20.6683C40.051 20.6683 40.2497 20.5874 40.3962 20.4433C40.5427 20.2992 40.625 20.1037 40.625 19.9V15.2898C40.625 15.0861 40.5427 14.8906 40.3962 14.7465C40.2497 14.6024 40.051 14.5215 39.8438 14.5215H33.5938C33.3865 14.5215 33.1878 14.6024 33.0413 14.7465C32.8948 14.8906 32.8125 15.0861 32.8125 15.2898V19.9C32.8125 20.1037 32.8948 20.2992 33.0413 20.4433C33.1878 20.5874 33.3865 20.6683 33.5938 20.6683H39.8438ZM39.0625 19.1316H37.5V16.0582H39.0625V19.1316ZM34.375 16.0582H35.9375V19.1316H34.375V16.0582Z" fill="white"/>
</svg>
