<svg width="50" height="50" viewBox="0 0 50 50" fill="none" xmlns="http://www.w3.org/2000/svg">
<path d="M10.6897 23.8325L23.8321 10.6922L19.5236 6.38367L13.5002 12.407C13.4284 12.479 13.3431 12.5361 13.2492 12.575C13.1552 12.614 13.0546 12.634 12.9529 12.634C12.8512 12.634 12.7505 12.614 12.6566 12.575C12.5627 12.5361 12.4774 12.479 12.4055 12.407L11.3108 11.3123C11.0081 11.0096 11.0081 10.5193 11.3108 10.2176L17.3341 4.19425L14.0491 0.908186C12.8391 -0.301752 10.8782 -0.301752 9.66828 0.908186L0.907703 9.66876C-0.301258 10.8787 -0.302235 12.8396 0.907703 14.0495L10.6897 23.8325ZM48.6255 12.4265C50.4575 10.5945 50.4566 7.62485 48.6255 5.79286L44.2067 1.374C42.3747 -0.457999 39.404 -0.457999 37.5711 1.374L33.077 5.86707L44.1315 16.9215L48.6255 12.4265ZM30.8671 8.07797L1.86374 37.0774L0.0317434 47.5694C-0.215322 48.9844 1.01708 50.2168 2.43306 49.9678L12.926 48.128L41.9216 19.1315L30.8671 8.07797ZM49.0923 35.9515L45.8072 32.6664L39.7839 38.6897C39.4812 38.9924 38.991 38.9924 38.6892 38.6897L37.5945 37.595C37.2927 37.2923 37.2927 36.802 37.5945 36.5003L43.6178 30.4769L39.3074 26.1665L26.165 39.3069L35.951 49.0918C37.1609 50.3018 39.1218 50.3018 40.3317 49.0918L49.0923 40.3322C50.3023 39.1223 50.3023 37.1614 49.0923 35.9515Z" fill="#83B62F"/>
</svg>
