<svg width="34" height="34" viewBox="0 0 34 34" fill="none" xmlns="http://www.w3.org/2000/svg">
<circle cx="19" cy="19" r="11" fill="#95C34A"/>
<g clip-path="url(#clip0)">
<path d="M23.6353 18.9762C24.0838 18.6237 24.5489 17.4998 23.1747 17.1753C22.1867 16.9439 21.524 17.6477 21.0541 16.6133C20.6235 15.6651 21.9516 13.9452 20.5053 13.1336C19.9728 12.8342 19.483 13.0244 19.5345 13.8422C19.6314 15.4815 18.6407 15.7159 17.9047 17.2489C17.2016 17.6597 16.6294 17.8853 15.9237 18.3055L14.9116 18.3162V23.0828H15.8519L16.5777 23.2948C17.6906 23.8781 19.0635 24 20.0192 24C20.5945 24 21.7549 23.9457 22.1327 23.6434C22.5611 23.3006 22.685 22.7508 22.7229 22.5203C23.4696 22.2208 23.6688 21.5961 23.3952 20.9202C23.718 20.7424 23.9185 20.5049 23.9914 20.2142C24.141 19.6224 23.7467 19.1691 23.6353 18.9762Z" fill="#443434"/>
</g>
<defs>
<clipPath id="clip0">
</clipPath>
</defs>
</svg>
