<svg width="68" height="58" viewBox="0 0 68 58" fill="none" xmlns="http://www.w3.org/2000/svg">
<path d="M66.2167 23.0835C66.4148 23.2397 66.6557 23.3198 66.8986 23.3198C67.0622 23.3198 67.2266 23.2834 67.3793 23.2094C67.759 23.0252 68 22.6403 68 22.2183V16.3436C68 16.0061 67.8453 15.6873 67.5802 15.4784L49.6478 1.34982C48.3901 0.358904 46.6335 0.359051 45.3758 1.34982L38.6263 6.66763V4.59414C38.6263 3.98582 38.1332 3.49263 37.5248 3.49263H32.8251C32.2167 3.49263 31.7235 3.98582 31.7235 4.59414V12.1063L27.4435 15.4784C27.1784 15.6873 27.0238 16.0061 27.0238 16.3436V22.2183C27.0238 22.6403 27.2648 23.0252 27.6444 23.2094C28.0239 23.3936 28.4755 23.3448 28.807 23.0837L29.3736 22.6372V33.3712L19.0992 25.2763C17.8416 24.2854 16.0849 24.2854 14.8272 25.2763L0.419749 36.6274C0.154652 36.8361 0 37.1551 0 37.4926V43.3674C0 43.7893 0.241011 44.1743 0.620665 44.3584C0.773408 44.4326 0.937754 44.4689 1.10136 44.4689C1.34414 44.4689 1.58515 44.3887 1.78327 44.2326L2.34989 43.7861V55.1903H1.10151C0.493184 55.1903 0 55.6834 0 56.2918C0 56.9001 0.493184 57.3933 1.10151 57.3933H66.8985C67.5068 57.3933 68 56.9001 68 56.2918C68 55.6834 67.5068 55.1903 66.8985 55.1903H65.6501V22.6371L66.2167 23.0835ZM33.9266 5.69566H36.4233V8.40347L33.9266 10.3706V5.69566ZM29.2268 16.8781L46.7393 3.08037C47.1942 2.72201 47.8297 2.72201 48.2845 3.08037L65.797 16.8781V19.948L48.1936 6.07884C47.9938 5.92125 47.7529 5.84252 47.5119 5.84252C47.2709 5.84252 47.0301 5.92125 46.8301 6.07884L29.2268 19.948V16.8781ZM2.20302 38.0271L16.1908 27.0065C16.6456 26.6482 17.2811 26.6482 17.736 27.0065L29.3736 36.1757V39.2458L17.645 30.005C17.2451 29.6898 16.6814 29.6898 16.2817 30.005L2.20302 41.0972V38.0271ZM4.55292 42.0504L16.9633 32.2726L29.3736 42.0505V55.1904H24.527V42.1926C24.527 41.5842 24.0338 41.091 23.4255 41.091H10.5011C9.89275 41.091 9.39957 41.5842 9.39957 42.1926V55.1904H4.55292V42.0504ZM11.6026 47.9937H22.324V50.4905H11.6026V47.9937ZM22.324 45.7907H11.6026V43.2939H22.324V45.7907ZM11.6026 52.6935H22.324V55.1903H11.6026V52.6935ZM43.473 46.9693C43.4486 46.9677 43.4241 46.9656 43.3996 46.9656C43.1102 46.9656 42.8253 47.0831 42.6212 47.2887C42.4156 47.4929 42.2981 47.7778 42.2981 48.0672C42.2981 48.3565 42.4156 48.6414 42.6212 48.8455C42.8253 49.0512 43.1102 49.1687 43.3996 49.1687C43.4241 49.1687 43.4486 49.1666 43.473 49.165V55.1903H38.6263V40.944H43.473V46.9693ZM63.4471 55.1903H45.676V39.8425C45.676 39.2342 45.1828 38.741 44.5745 38.741H37.5248C36.9165 38.741 36.4233 39.2342 36.4233 39.8425V55.1903H31.5767V20.9014L47.5119 8.34633L63.4471 20.9014V55.1903Z" fill="#83B62F"/>
<path d="M50.4492 50.3436H57.4988C58.1072 50.3436 58.6004 49.8504 58.6004 49.2421V39.8425C58.6004 39.2342 58.1072 38.741 57.4988 38.741H50.4492C49.8408 38.741 49.3477 39.2342 49.3477 39.8425V49.2421C49.3477 49.8504 49.8408 50.3436 50.4492 50.3436ZM51.5507 48.1405V44.4688H56.3973V48.1405H51.5507ZM56.3973 40.944V42.2658H51.5507V40.944H56.3973Z" fill="#83B62F"/>
<path d="M50.4492 33.8944H57.4988C58.1072 33.8944 58.6004 33.4012 58.6004 32.7928V23.3933C58.6004 22.7849 58.1072 22.2917 57.4988 22.2917H50.4492C49.8408 22.2917 49.3477 22.7849 49.3477 23.3933V32.7928C49.3477 33.4012 49.8408 33.8944 50.4492 33.8944ZM51.5507 31.6913V28.0196H56.3973V31.6913H51.5507ZM56.3973 24.4948V25.8166H51.5507V24.4948H56.3973Z" fill="#83B62F"/>
<path d="M44.5745 22.2917H37.5249C36.9165 22.2917 36.4233 22.7849 36.4233 23.3933V32.7928C36.4233 33.4012 36.9165 33.8944 37.5249 33.8944H44.5745C45.1829 33.8944 45.676 33.4012 45.676 32.7928V23.3933C45.676 22.7849 45.1829 22.2917 44.5745 22.2917ZM43.473 24.4948V25.8166H38.6264V24.4948H43.473ZM38.6264 31.6913V28.0196H43.473V31.6913H38.6264Z" fill="#83B62F"/>
</svg>
