<svg width="18" height="16" viewBox="0 0 18 16" fill="none" xmlns="http://www.w3.org/2000/svg">
<path d="M17.3236 0.991654L16.8416 0.577688C16.0415 -0.109637 14.8393 -0.0330225 14.133 0.750033L6.07018 9.68775L3.63638 7.59216C2.83719 6.90407 1.63478 6.97914 0.927605 7.76135L0.501455 8.23278C0.155867 8.61486 -0.0235701 9.11887 0.00248846 9.6337C0.028804 10.1482 0.258413 10.6313 0.641181 10.9766L5.10245 15.0609C5.4887 15.4236 6.00635 15.6127 6.53545 15.5846C7.06455 15.5566 7.55922 15.3136 7.90485 14.9121L17.5298 3.73149C17.8661 3.34086 18.0333 2.83274 17.9945 2.31897C17.9558 1.80483 17.7145 1.32746 17.3236 0.991654Z" fill="#95C34A"/>
</svg>
