<svg width="18" height="19" viewBox="0 0 18 19" fill="none" xmlns="http://www.w3.org/2000/svg">
<circle cx="9" cy="9.34784" r="8.5" fill="white" stroke="#D6D6D6"/>
<path d="M8.12646 11.4736C8.08838 11.3636 8.05452 11.2218 8.0249 11.0483C7.99528 10.8706 7.98047 10.695 7.98047 10.5215C7.98047 10.2507 8.03337 10.0073 8.13916 9.7915C8.24919 9.57145 8.3846 9.36621 8.54541 9.17578C8.70622 8.98535 8.88184 8.80339 9.07227 8.62988C9.2627 8.45215 9.43831 8.27441 9.59912 8.09668C9.75993 7.91471 9.89323 7.7264 9.99902 7.53174C10.109 7.33285 10.1641 7.11491 10.1641 6.87793C10.1641 6.6748 10.1239 6.49495 10.0435 6.33838C9.96729 6.1818 9.86149 6.05062 9.72607 5.94482C9.59066 5.83903 9.43408 5.76074 9.25635 5.70996C9.07861 5.65495 8.8903 5.62744 8.69141 5.62744C7.97624 5.62744 7.35628 5.90885 6.83154 6.47168V5.35449C7.479 4.94824 8.14974 4.74512 8.84375 4.74512C9.16536 4.74512 9.46794 4.78743 9.75146 4.87207C10.035 4.95671 10.2826 5.08366 10.4941 5.25293C10.71 5.41797 10.8792 5.62533 11.002 5.875C11.1247 6.12467 11.186 6.41455 11.186 6.74463C11.186 7.05778 11.131 7.33708 11.021 7.58252C10.911 7.82796 10.7713 8.05436 10.6021 8.26172C10.437 8.46484 10.2572 8.65527 10.0625 8.83301C9.86784 9.01074 9.68587 9.18848 9.5166 9.36621C9.35156 9.53971 9.21403 9.72168 9.104 9.91211C8.99398 10.1025 8.93896 10.312 8.93896 10.5405C8.93896 10.7352 8.96224 10.9129 9.00879 11.0737C9.05534 11.2303 9.10189 11.3636 9.14844 11.4736H8.12646ZM8.69775 14.1143C8.51156 14.1143 8.34652 14.0465 8.20264 13.9111C8.06299 13.7757 7.99316 13.6107 7.99316 13.416C7.99316 13.2171 8.06299 13.0521 8.20264 12.9209C8.34229 12.7812 8.50732 12.7114 8.69775 12.7114C8.88818 12.7114 9.05322 12.7812 9.19287 12.9209C9.33252 13.0521 9.40234 13.2171 9.40234 13.416C9.40234 13.6107 9.33252 13.7757 9.19287 13.9111C9.04899 14.0465 8.88395 14.1143 8.69775 14.1143Z" fill="#1E1F21" fill-opacity="0.6"/>
</svg>
