<svg width="22" height="26" viewBox="0 0 22 26" fill="none" xmlns="http://www.w3.org/2000/svg">
<path d="M0.957908 13.9104C0.799125 12.5342 0.931444 11.2057 1.29135 9.97783C2.48752 5.8971 6.24009 2.8961 10.6913 2.84317V0.175613C10.6913 0.0274157 10.8766 -0.0519759 10.9983 0.0380012L16.4869 4.07109C16.5769 4.1399 16.5769 4.27751 16.4869 4.34102L11.0036 8.37412C10.8766 8.46409 10.6966 8.3847 10.6966 8.2365V5.57424C7.76971 5.62188 5.27152 7.42671 4.19708 9.97783C3.78954 10.9411 3.58312 12.005 3.64134 13.1217C3.72073 14.6566 4.29765 16.0698 5.208 17.213C5.69494 17.8217 5.5785 18.7109 4.94866 19.1714C4.35057 19.6107 3.51432 19.4889 3.05385 18.9067C1.92649 17.4989 1.17491 15.784 0.957908 13.9104ZM16.8045 8.78695C17.7201 9.9249 18.297 11.3434 18.3711 12.8783C18.4293 14.0003 18.2176 15.0642 17.8154 16.0222C16.741 18.5733 14.2428 20.3834 11.3159 20.4258V17.7635C11.3159 17.6153 11.1306 17.5359 11.0089 17.6259L5.52028 21.659C5.4303 21.7278 5.4303 21.8654 5.52028 21.9289L11.0036 25.962C11.1306 26.052 11.3106 25.9726 11.3106 25.8244V23.1568C15.7618 23.1092 19.5197 20.1082 20.7105 16.0222C21.0704 14.7942 21.1975 13.4658 21.044 12.0896C20.8323 10.216 20.0807 8.50114 18.9533 7.09327C18.4876 6.51106 17.6566 6.38933 17.0585 6.82863C16.434 7.2891 16.3175 8.17828 16.8045 8.78695Z" fill="#83B62F"/>
</svg>
