<svg width="22" height="22" viewBox="0 0 22 22" fill="none" xmlns="http://www.w3.org/2000/svg">
<path d="M21.5013 12.2149L21.1677 11.7596C20.807 11.2637 20.798 10.592 21.1541 10.0871L21.4787 9.62732C21.9746 8.92408 21.7447 7.94586 20.9828 7.53563L20.487 7.26967C19.946 6.98116 19.6485 6.37709 19.7522 5.76852L19.8468 5.21404C19.9911 4.36655 19.3555 3.58216 18.4945 3.5461L17.931 3.52356C17.3179 3.49651 16.7859 3.08178 16.6146 2.49124L16.4569 1.95029C16.2179 1.12083 15.3073 0.69257 14.5139 1.03517L13.9955 1.25606C13.432 1.49949 12.7739 1.35524 12.3636 0.895428L11.9895 0.476189C11.417 -0.16394 10.4117 -0.159432 9.8437 0.494221L9.47405 0.917968C9.06833 1.38229 8.41468 1.53556 7.84668 1.30114L7.32375 1.08476C6.52585 0.755682 5.62426 1.20197 5.39435 2.03143L5.24559 2.57689C5.0833 3.17194 4.56038 3.59569 3.9473 3.62724L3.38381 3.6588C2.52279 3.70839 1.90069 4.50179 2.05847 5.34928L2.16215 5.90376C2.27485 6.50782 1.98634 7.1164 1.4499 7.41392L0.95853 7.68891C0.205703 8.10814 -0.0106789 9.09088 0.498719 9.7851L0.832308 10.2404C1.19294 10.7363 1.20196 11.408 0.845832 11.9129L0.521259 12.3727C0.0253847 13.0759 0.25529 14.0541 1.01713 14.4644L1.51301 14.7303C2.05396 15.0188 2.35149 15.6229 2.2478 16.2315L2.15314 16.7859C2.00888 17.6334 2.6445 18.4178 3.50552 18.4539L4.06902 18.4764C4.6821 18.5035 5.21403 18.9182 5.38534 19.5087L5.54311 20.0497C5.78204 20.8792 6.69264 21.3074 7.48604 20.9648L8.00446 20.7439C8.56795 20.5005 9.22611 20.6447 9.63633 21.1046L10.0105 21.5238C10.5875 22.1639 11.5928 22.1594 12.1563 21.5058L12.5259 21.082C12.9316 20.6177 13.5853 20.4644 14.1533 20.6988L14.6762 20.9152C15.4741 21.2443 16.3757 20.798 16.6056 19.9686L16.7544 19.4231C16.9167 18.828 17.4396 18.4043 18.0527 18.3727L18.6162 18.3412C19.4772 18.2916 20.0993 17.4982 19.9415 16.6507L19.8378 16.0962C19.7251 15.4922 20.0136 14.8836 20.5501 14.5861L21.0414 14.3111C21.7943 13.8963 22.0107 12.9136 21.5013 12.2149ZM5.85416 9.13145C5.85416 7.90529 6.84591 6.91354 8.07207 6.91354C9.29824 6.91354 10.29 7.90529 10.29 9.13145C10.29 10.3576 9.29824 11.3494 8.07207 11.3494C6.84591 11.3494 5.85416 10.3531 5.85416 9.13145ZM8.50033 14.852C8.311 15.0819 7.96839 15.1135 7.73849 14.9242C7.50858 14.7348 7.47703 14.3922 7.66636 14.1623L13.4861 7.15246C13.6755 6.92255 14.0181 6.891 14.248 7.08033C14.4779 7.26967 14.5094 7.61227 14.3201 7.84218L8.50033 14.852ZM13.9189 15.0819C12.6927 15.0819 11.701 14.0902 11.701 12.864C11.701 11.6379 12.6927 10.6461 13.9189 10.6461C15.145 10.6461 16.1368 11.6379 16.1368 12.864C16.1368 14.0902 15.145 15.0819 13.9189 15.0819Z" fill="#EDCD27"/>
</svg>
